<?xml version="1.0" standalone="no"?>
<!DOCTYPE svg PUBLIC "-//W3C//DTD SVG 20010904//EN"
 "http://www.w3.org/TR/2001/REC-SVG-20010904/DTD/svg10.dtd">
<svg version="1.0" xmlns="http://www.w3.org/2000/svg"
 width="342.000000pt" height="57.000000pt" viewBox="0 0 342.000000 57.000000"
 preserveAspectRatio="xMidYMid meet">

<g transform="translate(0.000000,57.000000) scale(0.100000,-0.100000)"
fill="#000000" stroke="none">
<path d="M812 533 c-23 -42 -203 -495 -199 -499 5 -5 31 55 137 319 36 86 67
157 70 157 4 0 51 -108 105 -240 54 -132 100 -238 102 -236 4 4 -193 503 -203
514 -1 2 -7 -5 -12 -15z"/>
<path d="M2670 504 c-74 -171 -190 -467 -186 -472 3 -2 10 6 15 19 5 13 46
114 91 224 45 110 86 211 92 225 8 22 21 -4 111 -224 56 -136 103 -244 104
-239 3 8 -193 502 -203 512 -2 2 -13 -18 -24 -45z"/>
<path d="M166 458 c32 -46 70 -100 85 -121 l27 -38 73 103 c40 57 77 109 82
116 5 7 7 15 4 18 -3 3 -38 -42 -78 -100 -41 -58 -77 -106 -80 -106 -3 0 -38
47 -79 105 -41 58 -78 105 -83 105 -4 0 18 -37 49 -82z"/>
<path d="M520 285 c0 -163 4 -255 10 -255 6 0 10 92 10 255 0 163 -4 255 -10
255 -6 0 -10 -92 -10 -255z"/>
<path d="M1610 530 c0 -6 65 -10 175 -10 110 0 175 4 175 10 0 6 -65 10 -175
10 -110 0 -175 -4 -175 -10z"/>
<path d="M3073 529 c7 -21 206 -307 218 -315 5 -3 8 63 7 158 l-2 163 -3 -130
c-2 -71 -7 -133 -12 -138 -5 -5 -50 52 -101 125 -97 139 -117 165 -107 137z"/>
<path d="M1114 280 c0 -140 2 -198 3 -128 2 71 2 185 0 255 -1 71 -3 13 -3
-127z"/>
<path d="M1205 519 c24 -40 207 -299 215 -304 6 -4 10 52 10 156 0 89 -3 159
-7 155 -5 -4 -10 -67 -13 -139 l-5 -132 -93 132 c-51 73 -98 135 -104 139 -7
5 -8 2 -3 -7z"/>
<path d="M1510 280 c0 -160 4 -250 10 -250 6 0 10 90 10 250 0 160 -4 250 -10
250 -6 0 -10 -90 -10 -250z"/>
<path d="M2040 280 c0 -160 4 -250 10 -250 6 0 10 90 10 250 0 160 -4 250 -10
250 -6 0 -10 -90 -10 -250z"/>
<path d="M2142 428 l3 -103 80 0 80 0 3 103 c2 65 -1 102 -8 102 -6 0 -10 -36
-10 -95 l0 -95 -65 0 -65 0 0 95 c0 59 -4 95 -10 95 -7 0 -10 -37 -8 -102z"/>
<path d="M2390 280 c0 -160 4 -250 10 -250 6 0 10 90 10 250 0 160 -4 250 -10
250 -6 0 -10 -90 -10 -250z"/>
<path d="M2984 275 c0 -143 2 -200 3 -127 2 73 2 190 0 260 -1 70 -3 10 -3
-133z"/>
<path d="M3394 280 c0 -140 2 -198 3 -128 2 71 2 185 0 255 -1 71 -3 13 -3
-127z"/>
<path d="M24 270 c0 -135 2 -190 3 -122 2 67 2 177 0 245 -1 67 -3 12 -3 -123z"/>
<path d="M1605 430 c-4 -6 16 -10 59 -10 l66 0 3 -197 3 -198 -1 205 0 205
-62 3 c-35 2 -64 -2 -68 -8z"/>
<path d="M1832 233 l3 -208 2 198 3 197 60 0 c33 0 60 4 60 10 0 6 -28 10 -65
10 l-65 0 2 -207z"/>
<path d="M120 190 c0 -202 18 -218 22 -19 l3 141 63 -91 c35 -50 67 -91 71
-91 4 0 36 42 71 93 l65 92 5 -145 6 -145 3 135 c1 74 4 142 6 151 1 9 0 22
-4 28 -5 7 -34 -26 -77 -88 -38 -55 -71 -101 -74 -101 -3 0 -36 45 -75 100
-38 55 -73 100 -77 100 -4 0 -8 -72 -8 -160z"/>
<path d="M1212 185 l2 -170 6 149 5 150 98 -142 c54 -78 103 -142 108 -142 6
0 -5 21 -24 48 -18 26 -67 94 -107 152 -41 58 -77 109 -82 115 -4 5 -7 -67 -6
-160z"/>
<path d="M3082 185 l2 -170 6 150 5 150 99 -143 c54 -78 103 -142 108 -142 5
0 -6 21 -25 48 -18 26 -67 94 -107 152 -40 58 -77 109 -81 115 -5 5 -8 -67 -7
-160z"/>
<path d="M825 244 c20 -50 20 -52 -17 -57 -29 -3 -27 -4 10 -5 23 -1 42 1 42
5 0 18 -34 93 -41 93 -5 0 -2 -16 6 -36z"/>
<path d="M2691 272 c-1 -7 5 -28 13 -47 l15 -34 -37 -4 -37 -4 43 -1 c28 -1
42 2 41 11 -1 18 -37 94 -38 79z"/>
<path d="M2147 234 c-11 -11 -8 -204 3 -204 6 0 10 38 10 95 l0 95 65 0 65 0
0 -95 c0 -59 4 -95 10 -95 7 0 10 37 8 103 l-3 102 -75 3 c-42 1 -79 0 -83 -4z"/>
<path d="M730 71 c-5 -11 -10 -26 -10 -33 1 -7 8 -1 16 15 14 25 19 27 84 27
65 0 70 -2 84 -27 8 -16 15 -22 16 -15 0 7 -5 22 -10 33 -9 16 -22 19 -90 19
-68 0 -81 -3 -90 -19z"/>
<path d="M2600 71 c-5 -11 -10 -26 -10 -33 1 -7 8 -1 16 15 14 25 19 27 84 27
65 0 70 -2 84 -27 8 -16 15 -22 16 -15 0 7 -5 22 -10 33 -9 16 -22 19 -90 19
-68 0 -81 -3 -90 -19z"/>
</g>
</svg>
